<svg width="256" height="256" fill="none" xmlns="http://www.w3.org/2000/svg"><g clip-path="url(#a)"><g clip-path="url(#b)"><path d="M128.001 255.129c70.211 0 127.129-56.918 127.129-127.129C255.13 57.788 198.212.87 128.001.87 57.789.87.871 57.788.871 128c0 70.211 56.918 127.129 127.13 127.129Z" fill="#2775CA"/><path d="M104.139 216.422c0 2.97-2.406 4.659-5.17 3.789-38.503-12.339-66.305-48.333-66.305-90.931 0-42.496 27.802-78.541 66.355-90.88 2.867-.87 5.171.819 5.171 3.788v7.424c0 1.997-1.484 4.25-3.379 4.967-30.515 11.213-52.224 40.499-52.224 74.701 0 34.252 21.76 63.488 52.224 74.598 1.895.717 3.379 2.97 3.379 4.966v7.578h-.051Z" fill="#fff"/><path d="M135.934 188.877a3.999 3.999 0 0 1-3.993 3.994h-7.936a3.999 3.999 0 0 1-3.994-3.994v-12.493c-17.357-2.406-25.805-12.032-28.109-25.344-.41-2.304 1.383-4.249 3.687-4.249h9.062c1.895 0 3.482 1.382 3.891 3.174 1.69 7.834 6.247 13.927 20.173 13.927 10.24 0 17.562-5.786 17.562-14.285 0-8.551-4.25-11.827-19.354-14.285-22.272-2.97-32.768-9.728-32.768-27.136 0-13.414 10.24-23.962 25.907-26.112v-12.34a3.999 3.999 0 0 1 3.994-3.993h7.936a3.999 3.999 0 0 1 3.994 3.994V82.33c12.8 2.304 20.94 9.523 23.654 21.658.512 2.304-1.28 4.352-3.686 4.352h-8.346c-1.792 0-3.277-1.178-3.789-2.868-2.304-7.628-7.731-11.008-17.305-11.008-10.548 0-15.975 5.07-15.975 12.237 0 7.527 3.072 11.315 19.251 13.619 21.863 2.97 33.178 9.216 33.178 27.802 0 14.08-10.547 25.549-26.931 28.109v12.697h-.103v-.051Z" fill="#fff"/><path d="M156.98 220.16c-2.867.87-5.171-.819-5.171-3.789v-7.424c0-2.202 1.28-4.25 3.379-4.966 30.413-11.111 52.224-40.448 52.224-74.599 0-34.253-21.76-63.488-52.224-74.598-1.895-.717-3.379-2.97-3.379-4.966v-7.424c0-2.97 2.406-4.66 5.171-3.79 38.553 12.135 66.355 48.18 66.355 90.676 0 42.598-27.802 78.592-66.355 90.88Z" fill="#fff"/></g><circle cx="128" cy="128" r="118" stroke="#9B6AFF" stroke-width="20"/></g><defs><clipPath id="a"><path fill="#fff" d="M0 0h256v256H0z"/></clipPath><clipPath id="b"><path fill="#fff" d="M0 0h256v256H0z"/></clipPath></defs></svg>